<svg width="40" height="40" viewBox="0 0 40 40" fill="none" xmlns="http://www.w3.org/2000/svg">
<g clip-path="url(#clip0_1_68)">
<path d="M18.3333 30H21.6666V26.6666H18.3333V30ZM20 3.33331C10.8 3.33331 3.33331 10.8 3.33331 20C3.33331 29.2 10.8 36.6666 20 36.6666C29.2 36.6666 36.6666 29.2 36.6666 20C36.6666 10.8 29.2 3.33331 20 3.33331ZM20 33.3333C12.65 33.3333 6.66665 27.35 6.66665 20C6.66665 12.65 12.65 6.66665 20 6.66665C27.35 6.66665 33.3333 12.65 33.3333 20C33.3333 27.35 27.35 33.3333 20 33.3333ZM20 9.99998C16.3166 9.99998 13.3333 12.9833 13.3333 16.6666H16.6666C16.6666 14.8333 18.1666 13.3333 20 13.3333C21.8333 13.3333 23.3333 14.8333 23.3333 16.6666C23.3333 20 18.3333 19.5833 18.3333 25H21.6666C21.6666 21.25 26.6666 20.8333 26.6666 16.6666C26.6666 12.9833 23.6833 9.99998 20 9.99998Z" fill="#858585"/>
</g>
<defs>
<clipPath id="clip0_1_68">
<rect width="40" height="40" fill="white"/>
</clipPath>
</defs>
</svg>
