<svg width="40" height="40" viewBox="0 0 40 40" fill="none" xmlns="http://www.w3.org/2000/svg">
<g clip-path="url(#clip0_1_56)">
<path d="M30 13.3334H28.3334V10C28.3334 5.40002 24.6 1.66669 20 1.66669C15.4 1.66669 11.6667 5.40002 11.6667 10V13.3334H10C8.16669 13.3334 6.66669 14.8334 6.66669 16.6667V33.3334C6.66669 35.1667 8.16669 36.6667 10 36.6667H30C31.8334 36.6667 33.3334 35.1667 33.3334 33.3334V16.6667C33.3334 14.8334 31.8334 13.3334 30 13.3334ZM15 10C15 7.23335 17.2334 5.00002 20 5.00002C22.7667 5.00002 25 7.23335 25 10V13.3334H15V10ZM30 33.3334H10V16.6667H30V33.3334ZM20 28.3334C21.8334 28.3334 23.3334 26.8334 23.3334 25C23.3334 23.1667 21.8334 21.6667 20 21.6667C18.1667 21.6667 16.6667 23.1667 16.6667 25C16.6667 26.8334 18.1667 28.3334 20 28.3334Z" fill="#858585"/>
</g>
<defs>
<clipPath id="clip0_1_56">
<rect width="40" height="40" fill="white"/>
</clipPath>
</defs>
</svg>
