<svg width="40" height="40" viewBox="0 0 40 40" fill="none" xmlns="http://www.w3.org/2000/svg">
<g clip-path="url(#clip0_1_63)">
<path d="M32.3833 21.6333C32.45 21.1 32.5 20.5666 32.5 20C32.5 19.4333 32.45 18.9 32.3833 18.3666L35.9 15.6166C36.2166 15.3666 36.3 14.9166 36.1 14.55L32.7666 8.78331C32.6166 8.51665 32.3333 8.36665 32.0333 8.36665C31.9333 8.36665 31.8333 8.38331 31.75 8.41665L27.6 10.0833C26.7333 9.41665 25.8 8.86665 24.7833 8.44998L24.15 4.03331C24.1 3.63331 23.75 3.33331 23.3333 3.33331H16.6666C16.25 3.33331 15.9 3.63331 15.85 4.03331L15.2166 8.44998C14.2 8.86665 13.2666 9.43331 12.4 10.0833L8.24998 8.41665C8.14998 8.38331 8.04998 8.36665 7.94998 8.36665C7.66664 8.36665 7.38331 8.51665 7.23331 8.78331L3.89998 14.55C3.68331 14.9166 3.78331 15.3666 4.09998 15.6166L7.61664 18.3666C7.54998 18.9 7.49998 19.45 7.49998 20C7.49998 20.55 7.54998 21.1 7.61664 21.6333L4.09998 24.3833C3.78331 24.6333 3.69998 25.0833 3.89998 25.45L7.23331 31.2166C7.38331 31.4833 7.66664 31.6333 7.96664 31.6333C8.06664 31.6333 8.16664 31.6166 8.24998 31.5833L12.4 29.9166C13.2666 30.5833 14.2 31.1333 15.2166 31.55L15.85 35.9666C15.9 36.3666 16.25 36.6666 16.6666 36.6666H23.3333C23.75 36.6666 24.1 36.3666 24.15 35.9666L24.7833 31.55C25.8 31.1333 26.7333 30.5666 27.6 29.9166L31.75 31.5833C31.85 31.6166 31.95 31.6333 32.05 31.6333C32.3333 31.6333 32.6166 31.4833 32.7666 31.2166L36.1 25.45C36.3 25.0833 36.2166 24.6333 35.9 24.3833L32.3833 21.6333V21.6333ZM29.0833 18.7833C29.15 19.3 29.1666 19.65 29.1666 20C29.1666 20.35 29.1333 20.7166 29.0833 21.2166L28.85 23.1L30.3333 24.2666L32.1333 25.6666L30.9666 27.6833L28.85 26.8333L27.1166 26.1333L25.6166 27.2666C24.9 27.8 24.2166 28.2 23.5333 28.4833L21.7666 29.2L21.5 31.0833L21.1666 33.3333H18.8333L18.5166 31.0833L18.25 29.2L16.4833 28.4833C15.7666 28.1833 15.1 27.8 14.4333 27.3L12.9166 26.1333L11.15 26.85L9.03331 27.7L7.86664 25.6833L9.66664 24.2833L11.15 23.1166L10.9166 21.2333C10.8666 20.7166 10.8333 20.3333 10.8333 20C10.8333 19.6666 10.8666 19.2833 10.9166 18.7833L11.15 16.9L9.66664 15.7333L7.86664 14.3333L9.03331 12.3166L11.15 13.1666L12.8833 13.8666L14.3833 12.7333C15.1 12.2 15.7833 11.8 16.4666 11.5166L18.2333 10.8L18.5 8.91665L18.8333 6.66665H21.15L21.4666 8.91665L21.7333 10.8L23.5 11.5166C24.2166 11.8166 24.8833 12.2 25.55 12.7L27.0666 13.8666L28.8333 13.15L30.95 12.3L32.1166 14.3166L30.3333 15.7333L28.85 16.9L29.0833 18.7833ZM20 13.3333C16.3166 13.3333 13.3333 16.3166 13.3333 20C13.3333 23.6833 16.3166 26.6666 20 26.6666C23.6833 26.6666 26.6666 23.6833 26.6666 20C26.6666 16.3166 23.6833 13.3333 20 13.3333ZM20 23.3333C18.1666 23.3333 16.6666 21.8333 16.6666 20C16.6666 18.1666 18.1666 16.6666 20 16.6666C21.8333 16.6666 23.3333 18.1666 23.3333 20C23.3333 21.8333 21.8333 23.3333 20 23.3333Z" fill="#858585"/>
</g>
<defs>
<clipPath id="clip0_1_63">
<rect width="40" height="40" fill="white"/>
</clipPath>
</defs>
</svg>
